<svg xmlns="http://www.w3.org/2000/svg" width="793.776" height="600.764" viewBox="0 0 793.776 600.764">
  <g id="Group_66" data-name="Group 66" transform="translate(0.001)">
    <rect id="Rectangle_67" data-name="Rectangle 67" width="67.803" height="43.362" transform="translate(494.649 232.579)" fill="#0a8947"/>
    <rect id="Rectangle_68" data-name="Rectangle 68" width="67.803" height="43.362" transform="translate(389.003 300.382)" fill="#19683e"/>
    <path id="Path_337" data-name="Path 337" d="M870.123,315.771V223.527H818.877V163.609h-34.69v59.919H732.941v92.243H704.558V108.42H647V88.71H570.53V69H494.843V88.71H423.1v19.71H360.814V314.982H327.7V222.739H276.455V162.82h-34.69v59.919H190.519v92.243H157.406V642.17h75.687v-115.9h52.035v115.9H488.536V507.353h88.3V642.17H699.828v.788h75.687v-115.9H827.55v115.9h75.687V315.771Zm-685.518,39.42h29.959v23.652H184.606ZM185,421.417h29.959v23.652H185Zm30.354,89.878H185.394V487.643h29.959ZM293.8,297.637H224.42V283.446H293.8Zm0-20.5H224.42V262.948H293.8Zm0-20.5H224.42V242.449H293.8Zm9.855,98.551h29.959v23.652H303.655Zm.394,66.226h29.959v23.652H304.049ZM334.4,511.295H304.443V487.643H334.4ZM457,471.875H401.811V447.434H457Zm0-70.168H401.811V377.266H457Zm0-70.168H401.811V307.1H457Zm0-70.168H401.811V236.93H457Zm0-70.168H401.811V166.762H457ZM560.281,471.875H505.092V447.434h55.188Zm0-70.168H505.092V377.266h55.188Zm0-70.168H505.092V307.1h55.188Zm0-70.168H505.092V236.93h55.188Zm0-70.168H505.092V166.762h55.188ZM663.561,471.875H608.373V447.434h55.188Zm0-70.168H608.373V377.266h55.188Zm0-70.168H608.373V307.1h55.188Zm0-70.168H608.373V236.93h55.188Zm0-70.168H608.373V166.762h55.188Zm63.467,164.777h29.959v23.652H727.028Zm.394,66.226h29.959v23.652H727.422Zm30.354,89.878H727.816V488.431h29.959Zm78.446-213.658h-69.38V284.234h69.38Zm0-20.5h-69.38V263.736h69.38Zm0-20.5h-69.38V243.237h69.38Zm9.855,98.551h29.959v23.652H846.077Zm.394,66.226h29.959v23.652H846.471Zm30.354,89.878H846.866V488.431h29.959Z" transform="translate(-109.462 -69)" fill="#f2f2f2"/>
    <path id="Path_338" data-name="Path 338" d="M216.3,692.671c-.221,3.119-.566,6.607-1.1,10.273l9.639-10.69.053.179a28.088,28.088,0,0,0-2.819-7.357l.062.169Z" transform="translate(-121.691 -199.359)" fill="#4ea585"/>
    <path id="Path_339" data-name="Path 339" d="M216.642,690.592l5.652-7.193a14.8,14.8,0,0,0-5.055-5.387c-.1-.062-.208-.12-.312-.177C216.958,678.684,217.106,683.671,216.642,690.592Z" transform="translate(-121.996 -197.827)" fill="#4ea585"/>
    <path id="Path_340" data-name="Path 340" d="M209.968,727.161q-.373,1.135-.769,2.228l14.195-8.323.02.209q.445-1.941.741-3.882l-14.174,9.864Z" transform="translate(-120.421 -206.197)" fill="#4ea585"/>
    <path id="Path_341" data-name="Path 341" d="M212.678,715.364l12.785-10.544.036.2a44.156,44.156,0,0,0-1.1-10.365l-9.823,10.893Q213.807,710.7,212.678,715.364Z" transform="translate(-121.157 -201.385)" fill="#4ea585"/>
    <path id="Path_342" data-name="Path 342" d="M209.744,703.574l-15.3-17.068.082-.193a36.864,36.864,0,0,0-3.671,6.461l17.457,18.586C208.913,708.647,209.38,706.021,209.744,703.574Z" transform="translate(-116.54 -199.62)" fill="#4ea585"/>
    <path id="Path_343" data-name="Path 343" d="M190.649,694.943h0c.028-.063.052-.132.079-.2Z" transform="translate(-116.496 -201.406)" fill="#4ea585"/>
    <path id="Path_344" data-name="Path 344" d="M189.548,697.651l-.079.2c.025-.067.054-.128.079-.195Z" transform="translate(-116.246 -202.02)" fill="#4ea585"/>
    <path id="Path_345" data-name="Path 345" d="M207.941,713.65,190.421,695q-.444,1.018-.851,2.093l17.907,18.534Q207.721,714.631,207.941,713.65Z" transform="translate(-116.268 -201.458)" fill="#4ea585"/>
    <path id="Path_346" data-name="Path 346" d="M224.436,715.175a52.734,52.734,0,0,0,.569-7.085l-12.957,10.686q-.77,3.108-1.695,5.977l14.055-9.782Z" transform="translate(-120.665 -204.229)" fill="#4ea585"/>
    <path id="Path_347" data-name="Path 347" d="M186.573,716.986l14.182,18.5a63.424,63.424,0,0,0,3.082-6.948l-17.305-18.176a51.005,51.005,0,0,0-.057,6.828Z" transform="translate(-115.594 -204.71)" fill="#4ea585"/>
    <path id="Path_348" data-name="Path 348" d="M214.108,677.489l.127-.057a10.005,10.005,0,0,0-9.691.2l9.289,12.616C214.332,682.761,214.111,677.563,214.108,677.489Z" transform="translate(-119.436 -197.497)" fill="#4ea585"/>
    <path id="Path_349" data-name="Path 349" d="M207.867,731.737A63,63,0,0,1,205.082,738l14.266-7.381.014.205a24.981,24.981,0,0,0,2.5-5.787q.34-1.2.62-2.4l-14.364,8.422C208.035,731.288,207.953,731.514,207.867,731.737Z" transform="translate(-119.55 -207.307)" fill="#4ea585"/>
    <path id="Path_350" data-name="Path 350" d="M211.914,691.194l-9.5-12.906.089-.184a21.265,21.265,0,0,0-6.843,6.314l15.173,16.929C211.356,697.724,211.7,694.277,211.914,691.194Z" transform="translate(-117.556 -197.884)" fill="#4ea585"/>
    <path id="Path_351" data-name="Path 351" d="M204.042,725.541a85.59,85.59,0,0,0,2.7-8.808l-17.952-18.58q-.641,1.741-1.178,3.621a30.67,30.67,0,0,0-.99,5.495l17.4,18.28Z" transform="translate(-115.645 -202.126)" fill="#4ea585"/>
    <path id="Path_352" data-name="Path 352" d="M230.119,757.734c-2.159,2.261-4.65,4.728-7.4,7.211l14.242-2.085-.073.172a28.087,28.087,0,0,0,2.521-7.464l-.06.169Z" transform="translate(-123.282 -214.275)" fill="#4ea585"/>
    <path id="Path_353" data-name="Path 353" d="M241.067,745.915c-.04-.113-.084-.225-.127-.335-.518.674-3.585,4.609-8.356,9.644l8.941-1.935A14.8,14.8,0,0,0,241.067,745.915Z" transform="translate(-125.369 -212.161)" fill="#4ea585"/>
    <path id="Path_354" data-name="Path 354" d="M204.249,781.234q-1.01.636-2.014,1.225l16.241,2.643-.118.174q1.581-1.211,3.047-2.518L204.2,781.315Z" transform="translate(-118.948 -219.706)" fill="#4ea585"/>
    <path id="Path_355" data-name="Path 355" d="M212.37,773.732l16.571.034-.1.175a44.161,44.161,0,0,0,5.767-8.682L220.1,767.384Q216.216,770.857,212.37,773.732Z" transform="translate(-121.092 -216.325)" fill="#4ea585"/>
    <path id="Path_356" data-name="Path 356" d="M205.283,779.973l17.064,1.431-.109.175a52.745,52.745,0,0,0,4.957-5.094l-16.8-.034Q207.825,778.353,205.283,779.973Z" transform="translate(-119.593 -218.693)" fill="#4ea585"/>
    <path id="Path_357" data-name="Path 357" d="M173.987,776.12c.121-.122.249-.255.375-.385a43.869,43.869,0,0,0,10.127-2.893l.464-12.3q.206-.469.4-.946l-.494,13.088a63.384,63.384,0,0,0,6.8-3.385l-1.585-22.862.372-.195,1.583,22.833.016,0a85.574,85.574,0,0,0,7.7-5.061l-1.726-22.5c.122-.09.244-.177.366-.268l1.726,22.5q.821-.608,1.617-1.223l-1.423-22.775c.122-.1.244-.2.365-.3L202.1,762.24c2.191-1.708,4.226-3.433,6.067-5.085l-.9-22.9.186-.1c-.636.166-1.282.363-1.934.577a32.312,32.312,0,0,0,3.3-4.493l-14.4,7.452a48.459,48.459,0,0,1-3.357,5.466c-.257.243-.515.486-.768.739l.019.273c-.118.155-.234.311-.353.463l-.026-.369c-.182.187-.359.384-.539.575a45.511,45.511,0,0,0,4.78-7.308l-14.078-18.368c.1,1.642.256,3.294.463,4.934a27.781,27.781,0,0,0-4.719-5.766l.111.142-3.254,8.866c.754,3.034,1.5,6.459,2.13,10.11l5.782-12.965c.026.2.054.4.082.605l-5.768,12.933q.856,5.137,1.226,9.925l6.923-10.874c.04.156.079.313.119.467l-7,10.992q.228,3.194.236,6.208l8.463-11.165.133.43-8.552,11.283-.042-.087q0,1.194-.043,2.357l9.546-10.748q.076.225.141.414l-9.711,10.934c-.01.24-.019.482-.031.72a63.023,63.023,0,0,1-.713,6.819l.921-.933q-.262.543-.51,1.071l-.524.531c-.06.345-.129.682-.195,1.022q-.29.637-.559,1.243c.173-.775.335-1.555.473-2.342l-19.066-13.117C161.13,765.9,170.5,778,171.1,778.772c.487-.909.929-1.845,1.335-2.8l.354-.035c-.049.117-.1.233-.149.349-.059.006-.12.016-.179.022l.152.042c-.286.667-.583,1.323-.9,1.956.416-.374,1.05-.965,1.808-1.716,4.483,1.144,16.562,3.592,26.9-.024l-15.845-3.447a44.309,44.309,0,0,1-10.588,3Zm11.134-20.05.38-.385-.022.576-.38.385Z" transform="translate(-109.197 -206.396)" fill="#4ea585"/>
    <path id="Path_358" data-name="Path 358" d="M240.7,743.747l.134.037a10.005,10.005,0,0,0-7.592-6.026L232.35,753.4C237.511,747.951,240.656,743.807,240.7,743.747Z" transform="translate(-125.32 -210.506)" fill="#4ea585"/>
    <path id="Path_359" data-name="Path 359" d="M199.137,783.528A63.036,63.036,0,0,1,193,786.577l15.695,3.414-.12.167a24.981,24.981,0,0,0,5.618-2.862q1.025-.7,2.008-1.452l-16.435-2.675C199.553,783.289,199.344,783.411,199.137,783.528Z" transform="translate(-116.993 -220.115)" fill="#4ea585"/>
    <path id="Path_360" data-name="Path 360" d="M222.351,760.845c2.716-2.457,5.177-4.895,7.31-7.13l.913-16,.186-.085a21.263,21.263,0,0,0-9.3.5Z" transform="translate(-123.016 -210.416)" fill="#4ea585"/>
    <path id="Path_361" data-name="Path 361" d="M179.129,717.214a14.8,14.8,0,0,0-6.473-3.561c-.118-.027-.234-.05-.351-.072.292.8,1.974,5.5,3.672,12.221Z" transform="translate(-112.615 -205.39)" fill="#4ea585"/>
    <path id="Path_362" data-name="Path 362" d="M173.893,740l-19.824-11.5.018-.209a36.866,36.866,0,0,0-1.494,7.279l22.347,12.28C174.671,745.081,174.3,742.439,173.893,740Z" transform="translate(-108.444 -208.502)" fill="#4ea585"/>
    <path id="Path_363" data-name="Path 363" d="M152.545,737.991h0c.007-.069.008-.142.015-.21Z" transform="translate(-108.433 -210.511)" fill="#4ea585"/>
    <path id="Path_364" data-name="Path 364" d="M152.335,740.907l-.015.21c0-.071.012-.138.015-.21Z" transform="translate(-108.386 -211.172)" fill="#4ea585"/>
    <path id="Path_365" data-name="Path 365" d="M174.931,750.373,152.5,738.048q-.108,1.105-.163,2.254L175.1,752.393Q175.024,751.374,174.931,750.373Z" transform="translate(-108.39 -210.568)" fill="#4ea585"/>
    <path id="Path_366" data-name="Path 366" d="M175.493,765.863l-22.076-11.937a51.021,51.021,0,0,0,2.056,6.511l.029-.228,19.207,13.213A63.423,63.423,0,0,0,175.493,765.863Z" transform="translate(-108.618 -213.927)" fill="#4ea585"/>
    <path id="Path_367" data-name="Path 367" d="M169.557,713.6l.1-.093a10.005,10.005,0,0,0-9.154,3.187l12.733,9.127C171.4,718.541,169.583,713.666,169.557,713.6Z" transform="translate(-110.118 -205.34)" fill="#4ea585"/>
    <path id="Path_368" data-name="Path 368" d="M172.118,727.292l-13.025-9.337.028-.2a21.264,21.264,0,0,0-4.556,8.12l19.663,11.411C173.606,733.674,172.864,730.291,172.118,727.292Z" transform="translate(-108.861 -206.273)" fill="#4ea585"/>
    <path id="Path_369" data-name="Path 369" d="M175.268,762.777a85.583,85.583,0,0,0-.154-9.212L152.3,741.445q-.072,1.854,0,3.808a30.668,30.668,0,0,0,.757,5.531l22.2,12Z" transform="translate(-108.374 -211.286)" fill="#4ea585"/>
    <path id="Path_370" data-name="Path 370" d="M1072.3,689.671c-.221,3.119-.566,6.607-1.1,10.273l9.639-10.69.053.179a28.09,28.09,0,0,0-2.819-7.357l.062.169Z" transform="translate(-302.817 -198.724)" fill="#4ea585"/>
    <path id="Path_371" data-name="Path 371" d="M1072.642,687.592l5.652-7.193a14.8,14.8,0,0,0-5.056-5.387c-.1-.062-.208-.12-.312-.177C1072.958,675.684,1073.106,680.671,1072.642,687.592Z" transform="translate(-303.122 -197.192)" fill="#4ea585"/>
    <path id="Path_372" data-name="Path 372" d="M1065.968,724.161q-.373,1.134-.77,2.228l14.195-8.323.02.209q.445-1.941.741-3.882l-14.174,9.864Z" transform="translate(-301.547 -205.562)" fill="#4ea585"/>
    <path id="Path_373" data-name="Path 373" d="M1068.678,712.364l12.784-10.543.036.2a44.16,44.16,0,0,0-1.1-10.365l-9.823,10.893Q1069.807,707.7,1068.678,712.364Z" transform="translate(-302.283 -200.75)" fill="#4ea585"/>
    <path id="Path_374" data-name="Path 374" d="M1065.744,700.574l-15.3-17.068.082-.193a36.868,36.868,0,0,0-3.671,6.461l17.457,18.586C1064.913,705.647,1065.38,703.021,1065.744,700.574Z" transform="translate(-297.666 -198.986)" fill="#4ea585"/>
    <path id="Path_375" data-name="Path 375" d="M1046.649,691.943h0c.028-.063.052-.132.079-.2Z" transform="translate(-297.622 -200.771)" fill="#4ea585"/>
    <path id="Path_376" data-name="Path 376" d="M1063.941,710.65,1046.421,692q-.444,1.018-.851,2.093l17.907,18.534Q1063.721,711.631,1063.941,710.65Z" transform="translate(-297.393 -200.823)" fill="#4ea585"/>
    <path id="Path_377" data-name="Path 377" d="M1045.548,694.651l-.079.2c.025-.067.054-.128.079-.195Z" transform="translate(-297.372 -201.385)" fill="#4ea585"/>
    <path id="Path_378" data-name="Path 378" d="M1080.436,712.175a52.711,52.711,0,0,0,.569-7.085l-12.957,10.686q-.77,3.108-1.695,5.977l14.056-9.782Z" transform="translate(-301.791 -203.594)" fill="#4ea585"/>
    <path id="Path_379" data-name="Path 379" d="M1042.573,713.986l14.182,18.5a63.435,63.435,0,0,0,3.082-6.948l-17.305-18.176a51.027,51.027,0,0,0-.057,6.828Z" transform="translate(-296.72 -204.075)" fill="#4ea585"/>
    <path id="Path_380" data-name="Path 380" d="M1070.108,674.489l.127-.057a10.005,10.005,0,0,0-9.691.2l9.288,12.616C1070.332,679.761,1070.111,674.563,1070.108,674.489Z" transform="translate(-300.562 -196.862)" fill="#4ea585"/>
    <path id="Path_381" data-name="Path 381" d="M1063.867,728.737a63.036,63.036,0,0,1-2.786,6.265l14.266-7.381.014.205a24.993,24.993,0,0,0,2.5-5.787q.34-1.2.62-2.4l-14.364,8.422C1064.036,728.288,1063.953,728.514,1063.867,728.737Z" transform="translate(-300.676 -206.673)" fill="#4ea585"/>
    <path id="Path_382" data-name="Path 382" d="M1067.914,688.194l-9.5-12.906.089-.184a21.265,21.265,0,0,0-6.843,6.314l15.173,16.929C1067.357,694.724,1067.7,691.277,1067.914,688.194Z" transform="translate(-298.682 -197.249)" fill="#4ea585"/>
    <path id="Path_383" data-name="Path 383" d="M1060.042,722.541a85.585,85.585,0,0,0,2.7-8.808l-17.952-18.58q-.641,1.741-1.178,3.621a30.669,30.669,0,0,0-.99,5.495l17.4,18.28Z" transform="translate(-296.77 -201.491)" fill="#4ea585"/>
    <path id="Path_384" data-name="Path 384" d="M1086.119,754.734c-2.159,2.261-4.65,4.728-7.4,7.211l14.242-2.085-.073.172a28.086,28.086,0,0,0,2.521-7.464l-.061.17Z" transform="translate(-304.408 -213.64)" fill="#4ea585"/>
    <path id="Path_385" data-name="Path 385" d="M1097.068,742.915c-.041-.114-.084-.225-.127-.335-.518.674-3.585,4.609-8.356,9.644l8.941-1.935A14.8,14.8,0,0,0,1097.068,742.915Z" transform="translate(-306.495 -211.526)" fill="#4ea585"/>
    <path id="Path_386" data-name="Path 386" d="M1060.249,778.234q-1.01.636-2.014,1.225l16.241,2.644-.118.174q1.581-1.212,3.047-2.518l-17.208-1.443Z" transform="translate(-300.074 -219.071)" fill="#4ea585"/>
    <path id="Path_387" data-name="Path 387" d="M1068.37,770.732l16.571.034-.1.175a44.163,44.163,0,0,0,5.767-8.682l-14.513,2.125Q1072.216,767.857,1068.37,770.732Z" transform="translate(-302.218 -215.691)" fill="#4ea585"/>
    <path id="Path_388" data-name="Path 388" d="M1061.283,776.972l17.064,1.431-.109.175a52.775,52.775,0,0,0,4.958-5.094l-16.8-.034Q1063.825,775.353,1061.283,776.972Z" transform="translate(-300.719 -218.059)" fill="#4ea585"/>
    <path id="Path_389" data-name="Path 389" d="M1029.988,773.12c.121-.122.249-.255.375-.385a43.868,43.868,0,0,0,10.127-2.893l.464-12.3q.206-.47.4-.946l-.494,13.088a63.4,63.4,0,0,0,6.8-3.385l-1.585-22.862.372-.195,1.583,22.833.016,0a85.578,85.578,0,0,0,7.7-5.061l-1.725-22.5c.122-.089.244-.177.366-.268l1.725,22.5q.821-.608,1.616-1.223l-1.423-22.775c.122-.1.244-.2.365-.3l1.424,22.792c2.191-1.708,4.226-3.433,6.067-5.085l-.9-22.9.186-.1c-.636.166-1.282.363-1.934.577a32.314,32.314,0,0,0,3.3-4.493l-14.4,7.452a48.483,48.483,0,0,1-3.357,5.466c-.257.243-.515.486-.768.739l.019.273c-.118.155-.234.311-.353.463l-.026-.369c-.182.187-.359.384-.539.575a45.507,45.507,0,0,0,4.78-7.308l-14.078-18.368c.1,1.642.256,3.294.463,4.934a27.783,27.783,0,0,0-4.719-5.766l.111.142-3.254,8.866c.754,3.034,1.5,6.459,2.13,10.11l5.782-12.965c.026.2.054.4.082.605l-5.768,12.933q.856,5.137,1.226,9.925l6.923-10.874c.04.156.079.313.119.467l-7,10.992q.228,3.194.236,6.208l8.463-11.165c.045.147.089.289.133.431l-8.552,11.283-.042-.086q0,1.194-.043,2.357l9.546-10.748q.076.225.141.414l-9.711,10.934c-.01.24-.019.482-.031.72a63,63,0,0,1-.713,6.819l.921-.933q-.262.543-.51,1.071l-.524.531c-.06.345-.129.682-.195,1.022q-.29.637-.559,1.243c.173-.775.335-1.555.473-2.342l-19.066-13.117c4.974,12.726,14.341,24.832,14.941,25.6.487-.909.929-1.845,1.335-2.8l.354-.035c-.049.117-.1.233-.149.349-.059.006-.12.016-.179.022l.152.042c-.286.667-.583,1.323-.9,1.957.416-.374,1.05-.965,1.808-1.716,4.483,1.144,16.562,3.592,26.9-.024l-15.845-3.447a44.311,44.311,0,0,1-10.587,3Zm11.134-20.05.38-.385-.022.576-.38.385Z" transform="translate(-290.323 -205.761)" fill="#4ea585"/>
    <path id="Path_390" data-name="Path 390" d="M1096.7,740.747l.134.037a10.005,10.005,0,0,0-7.592-6.026l-.893,15.641C1093.511,744.951,1096.656,740.807,1096.7,740.747Z" transform="translate(-306.446 -209.871)" fill="#4ea585"/>
    <path id="Path_391" data-name="Path 391" d="M1055.137,780.528a62.992,62.992,0,0,1-6.141,3.049l15.7,3.414-.12.167a24.978,24.978,0,0,0,5.618-2.862q1.025-.7,2.008-1.452l-16.435-2.675C1055.553,780.289,1055.344,780.411,1055.137,780.528Z" transform="translate(-298.118 -219.48)" fill="#4ea585"/>
    <path id="Path_392" data-name="Path 392" d="M1078.351,757.845c2.716-2.457,5.177-4.895,7.31-7.13l.914-16,.186-.085a21.265,21.265,0,0,0-9.3.5Z" transform="translate(-304.142 -209.782)" fill="#4ea585"/>
    <path id="Path_393" data-name="Path 393" d="M1035.129,714.214a14.8,14.8,0,0,0-6.473-3.561c-.118-.027-.235-.05-.351-.072.292.8,1.974,5.5,3.672,12.221Z" transform="translate(-293.74 -204.756)" fill="#4ea585"/>
    <path id="Path_394" data-name="Path 394" d="M1029.893,737l-19.824-11.5.018-.209a36.856,36.856,0,0,0-1.494,7.279l22.347,12.28C1030.671,742.081,1030.3,739.439,1029.893,737Z" transform="translate(-289.569 -207.867)" fill="#4ea585"/>
    <path id="Path_395" data-name="Path 395" d="M1008.335,737.907l-.015.21c0-.071.012-.138.015-.21Z" transform="translate(-289.512 -210.538)" fill="#4ea585"/>
    <path id="Path_396" data-name="Path 396" d="M1008.545,734.991h0c.007-.069.008-.142.015-.21Z" transform="translate(-289.559 -209.876)" fill="#4ea585"/>
    <path id="Path_397" data-name="Path 397" d="M1030.931,747.373,1008.5,735.048q-.108,1.105-.162,2.254l22.759,12.091Q1031.024,748.374,1030.931,747.373Z" transform="translate(-289.516 -209.933)" fill="#4ea585"/>
    <path id="Path_398" data-name="Path 398" d="M1031.493,762.863l-22.076-11.937a51.008,51.008,0,0,0,2.056,6.511l.029-.228,19.207,13.213A63.477,63.477,0,0,0,1031.493,762.863Z" transform="translate(-289.744 -213.293)" fill="#4ea585"/>
    <path id="Path_399" data-name="Path 399" d="M1025.557,710.6l.1-.093a10,10,0,0,0-9.154,3.187l12.733,9.127C1027.4,715.541,1025.583,710.666,1025.557,710.6Z" transform="translate(-291.244 -204.706)" fill="#4ea585"/>
    <path id="Path_400" data-name="Path 400" d="M1028.118,724.292l-13.025-9.337.028-.2a21.267,21.267,0,0,0-4.556,8.12l19.663,11.411C1029.606,730.674,1028.864,727.291,1028.118,724.292Z" transform="translate(-289.987 -205.638)" fill="#4ea585"/>
    <path id="Path_401" data-name="Path 401" d="M1031.268,759.777a85.574,85.574,0,0,0-.154-9.212L1008.3,738.445q-.072,1.854,0,3.808a30.671,30.671,0,0,0,.757,5.531l22.2,12.005Z" transform="translate(-289.5 -210.652)" fill="#6c63ff"/>
    <path id="Path_402" data-name="Path 402" d="M60.812,727H806.642v10.671a16.923,16.923,0,0,1-16.923,16.923H77.734a16.923,16.923,0,0,1-16.923-16.923Z" transform="translate(-12.868 -153.83)" fill="#2f2e41"/>
    <rect id="Rectangle_69" data-name="Rectangle 69" width="746" height="15" transform="translate(47.774 564.764)" fill="#3f3d56"/>
    <path id="Path_403" data-name="Path 403" d="M889.943,129.919l8.566,5.432-5.2-9.456a8.469,8.469,0,0,1,5.18-1.849h.138a9.926,9.926,0,0,0,1.777-.131l2.9,1.841-1.244-2.263a10.333,10.333,0,0,0,5.078-3.854l5.2,3.295-3.282-5.968a15.2,15.2,0,0,1,11.641-5.884c5.4,0,10.216,3.213,13.323,8.22a9.959,9.959,0,0,0,8.806,4.748q.145-.005.291-.005c5.965,0,10.8,6.763,10.8,15.105s-4.835,15.105-10.8,15.105a8.1,8.1,0,0,1-3.762-.942,15.585,15.585,0,0,0-13.072-.256,13.627,13.627,0,0,1-11.114.026,15.6,15.6,0,0,0-12.956.25,8.1,8.1,0,0,1-3.722.921c-5.965,0-10.8-6.763-10.8-15.105a19.181,19.181,0,0,1,2.255-9.233Z" transform="translate(-263.986 -77.905)" fill="#f2f2f2"/>
    <path id="Path_404" data-name="Path 404" d="M337.406,188.028l5.449,3.455-3.308-6.015a5.388,5.388,0,0,1,3.3-1.176h.088a6.313,6.313,0,0,0,1.131-.084l1.847,1.171-.792-1.439a6.573,6.573,0,0,0,3.23-2.452l3.305,2.1-2.088-3.8a9.672,9.672,0,0,1,7.4-3.743c3.437,0,6.5,2.044,8.475,5.229a6.335,6.335,0,0,0,5.6,3.02q.092,0,.185,0c3.794,0,6.87,4.3,6.87,9.609s-3.076,9.609-6.87,9.609a5.155,5.155,0,0,1-2.393-.6,9.914,9.914,0,0,0-8.315-.163,8.668,8.668,0,0,1-7.07.016,9.921,9.921,0,0,0-8.242.159,5.151,5.151,0,0,1-2.368.586c-3.794,0-6.87-4.3-6.87-9.609a12.2,12.2,0,0,1,1.435-5.873Z" transform="translate(-147.246 -91.651)" fill="#f2f2f2"/>
    <path id="Path_405" data-name="Path 405" d="M151.406,211.523l5.449,3.455-3.308-6.015a5.388,5.388,0,0,1,3.295-1.176h.088a6.313,6.313,0,0,0,1.131-.084l1.847,1.171-.792-1.439a6.572,6.572,0,0,0,3.23-2.452l3.305,2.1-2.088-3.8a9.672,9.672,0,0,1,7.4-3.743c3.437,0,6.5,2.044,8.475,5.229a6.335,6.335,0,0,0,5.6,3.02q.092,0,.185,0c3.794,0,6.87,4.3,6.87,9.609S189.023,227,185.229,227a5.156,5.156,0,0,1-2.393-.6,9.914,9.914,0,0,0-8.315-.163,8.668,8.668,0,0,1-7.07.016,9.921,9.921,0,0,0-8.242.159,5.151,5.151,0,0,1-2.368.586c-3.794,0-6.87-4.3-6.87-9.609A12.2,12.2,0,0,1,151.406,211.523Z" transform="translate(-107.889 -96.622)" fill="#f2f2f2"/>
    <path id="Path_420" data-name="Path 420" d="M824.715,573.834h12.2v17.422h0a12.2,12.2,0,0,1-12.2-12.2Z" transform="translate(-174.506 -121.421)" fill="#2f2e41"/>
    <path id="Path_421" data-name="Path 421" d="M815.458,703.292l-.871,4.356h6.1l.29-4.356Z" transform="translate(-172.363 -148.814)" fill="#a0616a"/>
    <path id="Path_422" data-name="Path 422" d="M909.086,776.556s-1.161-.871-1.742-.29-2.613,11.905-2.9,12.2-9,4.646-6.969,4.936,9.873.581,11.034,0,4.356-6.1,4.356-6.1v4.936h.581s.581-5.227,2.033-6.679-1.161-6.388-1.161-6.388.581-3.194.29-3.194S909.086,776.556,909.086,776.556Z" transform="translate(-265.992 -218.593)" fill="#6c63ff"/>
    <path id="Path_423" data-name="Path 423" d="M838.292,699.425l-.871,4.356h6.1l.29-4.356Z" transform="translate(-177.195 -147.995)" fill="#a0616a"/>
    <path id="Path_424" data-name="Path 424" d="M926.281,728.289s2.9,8.711,3.484,9.582S932.379,755,932.379,755s-2.033,3.194.581,3.484,1.452-.581,3.194,0a3.28,3.28,0,0,0,2.9-.29s.871-1.742.29-2.323.581-15.68.581-15.68l-1.742-5.227-1.452-16.551s1.742-4.356.871-5.517-3.775.871-3.775.871Z" transform="translate(-272.153 -205.171)" fill="#2f2e41"/>
    <path id="Path_425" data-name="Path 425" d="M918.89,703.788s-.871,9.292-1.452,9.873-6.969,16.841-6.969,16.841-1.742,2.033-1.161,9.582,2.033,15.1,2.033,15.1-1.161,4.356.871,4.356,2.9-1.161,3.775-.29,1.452,0,1.742-.581a15.557,15.557,0,0,0,1.452-3.194c0-.581,1.161-15.39,1.161-15.39s9.582-21.2,10.453-22.359,5.807-7.55,5.517-11.905Z" transform="translate(-268.536 -203.318)" fill="#2f2e41"/>
    <circle id="Ellipse_48" data-name="Ellipse 48" cx="6.098" cy="6.098" r="6.098" transform="translate(651.515 449.074)" fill="#a0616a"/>
    <path id="Path_426" data-name="Path 426" d="M929.228,652.027a64.785,64.785,0,0,1,2.613,6.679c.29,1.452,5.807-2.9,5.807-2.9s-2.9-4.936-2.033-7.259Z" transform="translate(-272.776 -191.629)" fill="#a0616a"/>
    <path id="Path_427" data-name="Path 427" d="M936.594,656.441s-4.356-3.194-7.55,3.484-4.065,6.388-4.065,6.388-3.775,1.161-2.613,9.292-3.775,18.874-1.742,19.455,20.907,3.775,20.907,1.452-1.742-11.325-.29-16.842S939.207,654.989,936.594,656.441Z" transform="translate(-270.85 -193.138)" fill="#3f3d56"/>
    <path id="Path_428" data-name="Path 428" d="M933.422,658.487s-3.484,5.227-3.194,9.292.29,6.679.29,6.679-5.807,27.876-4.646,27.876,4.646,1.452,4.936.581,7.55-18.584,7.55-18.584,1.742-17.713-.29-21.778S933.422,658.487,933.422,658.487Z" transform="translate(-272.034 -193.733)" fill="#3f3d56"/>
    <path id="Path_429" data-name="Path 429" d="M926.38,713s-2.9,9.873,1.161,10.163,1.742-9.582,1.742-9.582Z" transform="translate(-271.961 -205.267)" fill="#a0616a"/>
    <path id="Path_430" data-name="Path 430" d="M933.65,770.945s-1.017-.763-1.526-.254-2.289,10.426-2.543,10.68-7.883,4.069-6.1,4.323,8.646.509,9.663,0,3.814-5.34,3.814-5.34v4.323h.509s.509-4.577,1.78-5.849-1.017-5.594-1.017-5.594.509-2.8.254-2.8S933.65,770.945,933.65,770.945Z" transform="translate(-271.503 -217.421)" fill="#6c63ff"/>
    <path id="Path_431" data-name="Path 431" d="M924.845,639.083a1.7,1.7,0,0,1,.735-.52,1.535,1.535,0,0,1,.8.069,8.168,8.168,0,0,1,4.467,3.248,2.508,2.508,0,0,0,.9.974,5.3,5.3,0,0,1,.728.277c.679.449.274,1.489-.116,2.2a11.121,11.121,0,0,0-1.331,6,1.716,1.716,0,0,0,.305,1.017,1.812,1.812,0,0,0,1.207.482,29.82,29.82,0,0,0,4.249.227c1.39-.025,2.932-.222,3.832-1.281a4.033,4.033,0,0,0,.186-4.237c-.63-1.355-1.654-2.488-2.381-3.793a22.248,22.248,0,0,1-1.625-4.319,18.094,18.094,0,0,0-2.4-5.356,7.18,7.18,0,0,0-4.821-3.091c-2.638-.294-5.07,1.33-7.191,2.927-2.381,1.793-4.914,4.011-5.105,6.985-.155,2.41,1.292,4.589,2.048,6.883,1.167,3.54.678,7.385.177,11.079,2.15-1.288,4.582-3.076,4.442-5.578-.1-1.688-1.369-3.036-2.162-4.529C919.609,644.647,922.095,641.894,924.845,639.083Z" transform="translate(-270.247 -187.907)" fill="#2f2e41"/>
    <path id="Path_432" data-name="Path 432" d="M1029.28,671.417a20.885,20.885,0,0,0,2.762-10.587c0-9.568-5.925-17.325-13.234-17.325s-13.234,7.757-13.234,17.325a20.884,20.884,0,0,0,2.762,10.587,21.671,21.671,0,0,0,0,21.175,21.671,21.671,0,0,0,0,21.175,21.671,21.671,0,0,0,0,21.175,20.883,20.883,0,0,0-2.762,10.587c0,9.568,5.925,17.325,13.234,17.325s13.234-7.757,13.234-17.325a20.889,20.889,0,0,0-2.762-10.587,21.671,21.671,0,0,0,0-21.175,21.672,21.672,0,0,0,0-21.175A21.671,21.671,0,0,0,1029.28,671.417Z" transform="translate(-288.93 -190.563)" fill="#3f3d56"/>
    <ellipse id="Ellipse_49" data-name="Ellipse 49" cx="13.234" cy="17.325" rx="13.234" ry="17.325" transform="translate(716.643 431.767)" fill="#3f3d56"/>
    <ellipse id="Ellipse_50" data-name="Ellipse 50" cx="13.234" cy="17.325" rx="13.234" ry="17.325" transform="translate(716.643 410.593)" fill="#3f3d56"/>
    <path id="Path_433" data-name="Path 433" d="M1054.812,400.434a63.555,63.555,0,0,0,4.929-7.255l-34.774-5.711,37.609.28a63.5,63.5,0,0,0,1.211-50.229l-50.457,26.175,46.533-34.205a63.4,63.4,0,1,0-104.7,70.946,63.428,63.428,0,0,0-7.23,11.561l45.139,23.451-48.131-16.154a63.43,63.43,0,0,0,10.221,59.53,63.392,63.392,0,1,0,99.652,0,63.4,63.4,0,0,0,0-78.388Z" transform="translate(-275.393 -117.422)" fill="#f2f2f2"/>
    <path id="Path_434" data-name="Path 434" d="M941.594,477.43a63.121,63.121,0,0,0,13.566,39.194,63.392,63.392,0,1,0,99.652,0C1063.309,505.838,941.594,470.315,941.594,477.43Z" transform="translate(-275.393 -155.224)" fill="#f2f2f2"/>
    <path id="Path_435" data-name="Path 435" d="M1054.812,400.434a63.555,63.555,0,0,0,4.929-7.255l-34.774-5.711,37.609.28a63.5,63.5,0,0,0,1.211-50.229l-50.457,26.175,46.533-34.205a63.4,63.4,0,1,0-104.7,70.946,63.428,63.428,0,0,0-7.23,11.561l45.139,23.451-48.131-16.154a63.43,63.43,0,0,0,10.221,59.53,63.392,63.392,0,1,0,99.652,0,63.4,63.4,0,0,0,0-78.388Z" transform="translate(-275.393 -117.422)" fill="#57b894"/>
    <path id="Path_436" data-name="Path 436" d="M941.594,477.43a63.121,63.121,0,0,0,13.566,39.194,63.392,63.392,0,1,0,99.652,0C1063.309,505.838,941.594,470.315,941.594,477.43Z" transform="translate(-275.393 -155.224)" opacity="0.1"/>
    <path id="Path_437" data-name="Path 437" d="M184.28,671.417a20.884,20.884,0,0,0,2.762-10.587c0-9.568-5.925-17.325-13.234-17.325s-13.234,7.757-13.234,17.325a20.884,20.884,0,0,0,2.762,10.587,21.671,21.671,0,0,0,0,21.175,21.671,21.671,0,0,0,0,21.175,21.671,21.671,0,0,0,0,21.175,20.885,20.885,0,0,0-2.762,10.587c0,9.568,5.925,17.325,13.234,17.325s13.234-7.757,13.234-17.325a20.885,20.885,0,0,0-2.762-10.587,21.671,21.671,0,0,0,0-21.175,21.671,21.671,0,0,0,0-21.175A21.671,21.671,0,0,0,184.28,671.417Z" transform="translate(-110.132 -190.563)" fill="#3f3d56"/>
    <ellipse id="Ellipse_51" data-name="Ellipse 51" cx="13.234" cy="17.325" rx="13.234" ry="17.325" transform="translate(50.441 431.767)" fill="#3f3d56"/>
    <ellipse id="Ellipse_52" data-name="Ellipse 52" cx="13.234" cy="17.325" rx="13.234" ry="17.325" transform="translate(50.441 410.593)" fill="#3f3d56"/>
    <path id="Path_438" data-name="Path 438" d="M209.812,400.434a63.536,63.536,0,0,0,4.929-7.255l-34.774-5.711,37.609.28a63.5,63.5,0,0,0,1.211-50.229l-50.457,26.175,46.533-34.205a63.4,63.4,0,1,0-104.7,70.946,63.428,63.428,0,0,0-7.23,11.561l45.139,23.451L99.939,419.292a63.43,63.43,0,0,0,10.221,59.53,63.392,63.392,0,1,0,99.652,0,63.4,63.4,0,0,0,0-78.388Z" transform="translate(-96.594 -117.422)" fill="#f2f2f2"/>
    <path id="Path_439" data-name="Path 439" d="M96.594,477.43a63.12,63.12,0,0,0,13.566,39.194,63.392,63.392,0,1,0,99.652,0C218.309,505.838,96.594,470.315,96.594,477.43Z" transform="translate(-96.594 -155.224)" fill="#f2f2f2"/>
    <path id="Path_440" data-name="Path 440" d="M209.812,400.434a63.536,63.536,0,0,0,4.929-7.255l-34.774-5.711,37.609.28a63.5,63.5,0,0,0,1.211-50.229l-50.457,26.175,46.533-34.205a63.4,63.4,0,1,0-104.7,70.946,63.428,63.428,0,0,0-7.23,11.561l45.139,23.451L99.939,419.292a63.43,63.43,0,0,0,10.221,59.53,63.392,63.392,0,1,0,99.652,0,63.4,63.4,0,0,0,0-78.388Z" transform="translate(-96.594 -117.422)" fill="#57b894"/>
    <path id="Path_441" data-name="Path 441" d="M96.594,477.43a63.12,63.12,0,0,0,13.566,39.194,63.392,63.392,0,1,0,99.652,0C218.309,505.838,96.594,470.315,96.594,477.43Z" transform="translate(-96.594 -155.224)" opacity="0.1"/>
  </g>
</svg>
